<svg width="currentWidth" height="currentHeight" viewBox="0 0 70 70" fill="none" xmlns="http://www.w3.org/2000/svg">
<path d="M35 17C23.9516 17 15 25.9516 15 37C15 48.0484 23.9516 57 35 57C46.0484 57 55 48.0484 55 37C55 25.9516 46.0484 17 35 17ZM44.8065 42.25C45.1855 42.629 45.1855 43.2419 44.8065 43.621L41.6129 46.8065C41.2339 47.1855 40.621 47.1855 40.2419 46.8065L35 41.5161L29.75 46.8065C29.371 47.1855 28.7581 47.1855 28.379 46.8065L25.1935 43.6129C24.8145 43.2339 24.8145 42.621 25.1935 42.2419L30.4839 37L25.1935 31.75C24.8145 31.371 24.8145 30.7581 25.1935 30.379L28.3871 27.1855C28.7661 26.8065 29.379 26.8065 29.7581 27.1855L35 32.4839L40.25 27.1935C40.629 26.8145 41.2419 26.8145 41.621 27.1935L44.8145 30.3871C45.1935 30.7661 45.1935 31.379 44.8145 31.7581L39.5161 37L44.8065 42.25Z" fill="currentColor"/>
</svg>
