<svg width="currentWidth" height="currentHeight" viewBox="0 0 25 25" fill="none" xmlns="http://www.w3.org/2000/svg">
<path d="M24.2188 3.12493H21.0938L20.7441 2.4262C20.6144 2.16666 20.4149 1.94839 20.1681 1.79583C19.9213 1.64327 19.6368 1.56245 19.3467 1.56243H16.7285L15.3965 0.230399C14.9038 -0.261788 14.0625 0.0868446 14.0625 0.782645V8.09905L20.3125 10.331V8.59368H21.875C23.6011 8.59368 25 7.19475 25 5.46868V3.90618C25 3.47454 24.6504 3.12493 24.2188 3.12493ZM18.75 5.46868C18.3184 5.46868 17.9688 5.11907 17.9688 4.68743C17.9688 4.25579 18.3184 3.90618 18.75 3.90618C19.1816 3.90618 19.5312 4.25579 19.5312 4.68743C19.5312 5.11907 19.1816 5.46868 18.75 5.46868ZM4.6875 9.37493C3.82617 9.37493 3.125 8.67376 3.125 7.81243C3.125 6.94964 2.42529 6.24993 1.5625 6.24993C0.699707 6.24993 0 6.94964 0 7.81243C0 9.84661 1.31006 11.5649 3.125 12.2118V22.6562C3.125 23.0878 3.47461 23.4374 3.90625 23.4374H7.03125C7.46289 23.4374 7.8125 23.0878 7.8125 22.6562V17.1874H15.625V22.6562C15.625 23.0878 15.9746 23.4374 16.4062 23.4374H19.5312C19.9629 23.4374 20.3125 23.0878 20.3125 22.6562V11.9897L12.9907 9.37493H4.6875Z" fill="currentColor"/>
</svg>
